<svg width="39.846569mm" height="39.846569mm" viewBox="0 0 39.846569 39.846569" version="1.1" id="svg1" xml:space="preserve" xmlns:xlink="http://www.w3.org/1999/xlink" xmlns="http://www.w3.org/2000/svg"><defs id="defs1"><linearGradient id="linearGradient46"><stop style="stop-color:#0038c7;stop-opacity:1" offset="0" id="stop46"/><stop style="stop-color:#7ce2fd;stop-opacity:1" offset="1" id="stop47"/></linearGradient><linearGradient xlink:href="#linearGradient46" id="linearGradient47" x1="-162.8793" y1="172.91341" x2="-128.10994" y2="141.64432" gradientUnits="userSpaceOnUse"/><linearGradient xlink:href="#linearGradient46" id="linearGradient48" gradientUnits="userSpaceOnUse" x1="-162.8793" y1="172.91341" x2="-128.10994" y2="141.64432"/><linearGradient xlink:href="#linearGradient46" id="linearGradient49" gradientUnits="userSpaceOnUse" x1="-162.8793" y1="172.91341" x2="-128.10994" y2="141.64432"/><linearGradient xlink:href="#linearGradient46" id="linearGradient50" gradientUnits="userSpaceOnUse" x1="-162.8793" y1="172.91341" x2="-128.10994" y2="141.64432"/></defs><g id="layer1" transform="translate(-30.737124,-126.3269)"><g id="g44" style="fill:url(#linearGradient47);fill-opacity:1" transform="translate(198.10351,-12.253825)"><path style="fill:url(#linearGradient48);fill-opacity:1" d="m -141.49309,155.87503 c -3.10048,0 -2.93677,-0.15078 -2.93677,2.70474 0,2.08475 0.005,2.11877 0.32763,2.40967 0.32365,0.29105 0.35652,0.29507 2.74195,0.29507 3.24599,0 3.06958,0.15108 3.06958,-2.62929 0,-1.1215 -0.0371,-2.12695 -0.0827,-2.23397 -0.19111,-0.44861 -0.74941,-0.54622 -3.11971,-0.54622 z" id="path33"/><path style="fill:url(#linearGradient49);fill-opacity:1" d="m -143.70535,147.8212 c -6.48834,0 -6.6405,0.015 -8.4646,0.81701 -1.46695,0.64499 -2.96957,2.02112 -3.7021,3.39049 -0.30061,0.56195 -0.61146,1.30795 -0.69092,1.6583 -0.2205,0.97214 -0.19021,9.17466 0.0367,9.94202 0.74382,2.51549 2.94373,4.56255 5.82445,5.41983 0.6198,0.18445 1.37764,0.2294 4.87102,0.2899 6.39477,0.11065 7.8273,0.0699 8.5447,-0.24288 0.79125,-0.345 1.13068,-0.792 1.13068,-1.48879 0,-0.51228 -0.0669,-0.62013 -0.94051,-1.51309 -0.51741,-0.52888 -1.07301,-0.98876 -1.23455,-1.02216 -0.16154,-0.0334 -2.54586,-0.0743 -5.29838,-0.0909 l -5.00487,-0.0305 -0.68523,-0.32556 c -0.8421,-0.40007 -1.56664,-1.14038 -1.77508,-1.81333 -0.10957,-0.35367 -0.14429,-1.69913 -0.11576,-4.47259 0.0391,-3.79816 0.0528,-3.98689 0.32867,-4.44728 0.35799,-0.59756 0.86882,-1.03184 1.64692,-1.39939 0.59369,-0.2804 0.66078,-0.28437 5.872,-0.35037 2.89933,-0.0367 5.28356,-0.0771 5.29787,-0.0899 0.0143,-0.0128 0.44953,-0.45667 0.96738,-0.98598 0.86589,-0.88506 0.94154,-1.0052 0.94154,-1.4981 0,-0.43275 -0.083,-0.62124 -0.4315,-0.97876 -0.75641,-0.7756 -0.6789,-0.76791 -7.11842,-0.76791 z" id="path32"/><path style="fill:url(#linearGradient50);fill-opacity:1" d="m -142.67493,138.59152 c -7.20502,-0.0292 -8.63431,-0.006 -9.67021,0.15502 -2.33244,0.36254 -5.01697,1.34581 -7.10034,2.60088 -1.41937,0.85506 -3.57727,2.75098 -4.59558,4.038 -0.96108,1.21467 -2.11106,3.26922 -2.60915,4.66018 -0.71037,1.98381 -0.75702,2.57241 -0.69763,8.87542 0.0508,5.39337 0.0739,5.86153 0.33797,6.84558 1.24935,4.65571 4.96739,8.85613 9.70173,10.96109 2.13267,0.94823 3.62871,1.33834 6.40581,1.66915 0.2202,0.0262 4.00371,0.0376 8.40775,0.0258 7.90279,-0.0212 8.02038,-0.0248 9.00462,-0.29353 1.59147,-0.43447 3.00553,-1.16405 4.10156,-2.11666 0.90386,-0.78558 0.97359,-0.88261 0.97359,-1.34876 0,-0.27616 -0.0618,-0.64856 -0.13746,-0.82785 -0.16639,-0.39418 -2.05419,-2.16905 -2.5585,-2.40554 -0.68676,-0.32204 -1.4185,-0.21346 -2.49649,0.37052 -1.8641,1.00979 -1.38337,0.96325 -9.88829,0.96325 -8.57581,0 -8.312,0.0248 -10.74301,-1.01545 -1.58347,-0.67758 -2.68466,-1.40276 -3.83026,-2.52232 -0.96636,-0.94441 -1.54272,-1.7639 -2.17764,-3.09542 -0.83151,-1.74379 -0.88706,-2.27463 -0.83199,-7.98349 0.0549,-5.69481 0.0623,-5.74764 1.04799,-7.66413 1.20423,-2.34141 3.26353,-4.14996 6.04305,-5.30666 2.16225,-0.90006 2.17648,-0.90123 10.49186,-0.90123 8.3853,0 8.15287,-0.0223 9.80044,0.95239 1.5997,0.94636 2.10469,0.89815 3.52898,-0.33693 1.36042,-1.1797 1.75132,-1.68423 1.75132,-2.26187 0,-0.63969 -0.25545,-1.03455 -1.13999,-1.76269 -0.98072,-0.80732 -2.33374,-1.52385 -3.62768,-1.92133 l -1.03767,-0.31884 z" id="path7"/></g></g></svg>
